<?xml version="1.0" encoding="UTF-8"?><svg xmlns="http://www.w3.org/2000/svg" xmlns:xlink="http://www.w3.org/1999/xlink" viewBox="0 0 520.02 433.35"><defs><style>.g{fill:url(#e);}.h{fill:url(#d);}.i{fill:none;}.j{fill:#29e7d6;}.k{clip-path:url(#f);}</style><linearGradient id="d" x1="259.93" y1="429.01" x2="260.01" y2="429.01" gradientTransform="matrix(1, 0, 0, 1, 0, 0)" gradientUnits="userSpaceOnUse"><stop offset=".1" stop-color="#29e7d6"/><stop offset="1" stop-color="#000078"/></linearGradient><linearGradient id="e" x1="86.67" y1="216.68" x2="520.02" y2="216.68" xlink:href="#d"/><clipPath id="f"><path class="i" d="M260.01,429.02c-98.9-20.08-173.34-107.51-173.34-212.34,0-71.8,58.21-130.01,130.01-130.01s130.01,58.21,130.01,130.01c0,56.6-36.18,104.73-86.67,122.58,13.56,4.79,28.14,7.43,43.34,7.43,71.8,0,130.01-58.21,130.01-130.01,0,.04,0,.08,0,.12,0-.04,0-.08,0-.12C433.35,97.01,336.34,0,216.68,0S0,97.01,0,216.68s97.01,216.68,216.68,216.68c15.79,0,31.17-1.7,46-4.91-.89,.19-1.77,.39-2.66,.57Z"/></clipPath></defs><g id="a"/><g id="b"><g id="c"><g><path class="h" d="M260.01,429.01s-.05-.01-.07-.02h0s.05,.01,.08,.02Z"/><path class="g" d="M303.35,0c-14.84,0-29.33,1.5-43.34,4.34,98.9,20.08,173.34,107.51,173.34,212.34,0,71.8-58.21,130.01-130.01,130.01-1.04,0-2.07-.01-3.11-.04-.38,0-.76-.02-1.14-.04-.64-.02-1.28-.04-1.91-.07-.48-.02-.97-.05-1.45-.08-.51-.03-1.02-.06-1.52-.1-.57-.04-1.13-.08-1.69-.13-.38-.03-.75-.07-1.13-.1-.67-.06-1.35-.12-2.02-.2-.12-.01-.25-.03-.37-.04-65.05-7.14-115.66-62.26-115.66-129.21,0-56.6,36.18-104.75,86.67-122.6-13.56-4.79-28.14-7.41-43.34-7.41-71.8,0-130.01,58.21-130.01,130.01,0,1.76,.02,3.52,.07,5.27,.01,.57,.04,1.15,.06,1.72,.04,1.18,.08,2.36,.13,3.53,.03,.67,.07,1.35,.11,2.02,.06,1.07,.13,2.15,.2,3.22,.05,.7,.11,1.4,.16,2.1,.09,1.05,.18,2.09,.28,3.13,.07,.7,.14,1.39,.21,2.09,.11,1.06,.23,2.11,.36,3.16,.08,.67,.16,1.33,.24,2,.15,1.13,.31,2.27,.48,3.39,.08,.57,.16,1.14,.25,1.7,.24,1.58,.5,3.16,.78,4.72,.02,.11,.04,.22,.05,.33,.3,1.67,.62,3.34,.96,5,.11,.54,.23,1.09,.35,1.63,.24,1.12,.47,2.23,.73,3.34,.15,.65,.3,1.29,.46,1.93,.24,1.01,.48,2.01,.73,3.01,.17,.67,.35,1.34,.52,2.02,.26,.97,.52,1.94,.79,2.91,.19,.67,.37,1.34,.57,2.01,.28,.98,.57,1.95,.87,2.92,.19,.64,.39,1.28,.59,1.92,.33,1.03,.66,2.06,1,3.09,.19,.56,.37,1.13,.56,1.69,.46,1.35,.94,2.69,1.42,4.03,.08,.23,.16,.46,.24,.69,.57,1.55,1.16,3.09,1.76,4.63,.21,.53,.42,1.05,.64,1.58,.41,1.02,.82,2.03,1.24,3.04,.26,.62,.53,1.23,.79,1.85,.39,.91,.79,1.82,1.19,2.72,.29,.64,.58,1.28,.87,1.92,.4,.87,.81,1.74,1.22,2.61,.3,.64,.61,1.28,.92,1.92,.42,.86,.85,1.72,1.28,2.58,.31,.62,.63,1.24,.94,1.86,.46,.9,.94,1.79,1.41,2.68,.3,.56,.6,1.13,.91,1.69,.6,1.1,1.21,2.19,1.83,3.28,.19,.34,.38,.69,.58,1.03,.8,1.4,1.62,2.78,2.46,4.16,.32,.53,.65,1.05,.97,1.57,.54,.87,1.08,1.74,1.63,2.61,.38,.6,.77,1.18,1.15,1.78,.51,.78,1.02,1.57,1.54,2.34,.41,.61,.82,1.22,1.24,1.83,.51,.75,1.03,1.49,1.55,2.24,.43,.61,.86,1.22,1.29,1.82,.53,.73,1.06,1.46,1.6,2.19,.44,.59,.87,1.19,1.32,1.78,.56,.75,1.13,1.49,1.71,2.23,.43,.56,.86,1.11,1.29,1.67,.67,.85,1.35,1.69,2.03,2.52,.35,.43,.69,.86,1.04,1.29,1,1.22,2.02,2.42,3.05,3.61,.45,.52,.9,1.02,1.35,1.54,.63,.71,1.25,1.42,1.88,2.12,.51,.56,1.02,1.11,1.53,1.67,.59,.64,1.19,1.29,1.79,1.92,.53,.57,1.07,1.13,1.62,1.69,.59,.61,1.19,1.22,1.79,1.83,.55,.56,1.11,1.12,1.67,1.67,.6,.6,1.21,1.18,1.82,1.77,.57,.55,1.13,1.1,1.71,1.64,.62,.59,1.25,1.17,1.88,1.75,.57,.53,1.13,1.05,1.71,1.57,.69,.62,1.39,1.23,2.08,1.85,.64,.56,1.28,1.13,1.93,1.69,1.06,.91,2.13,1.82,3.2,2.71,.59,.49,1.19,.97,1.79,1.45,.67,.54,1.33,1.08,2.01,1.62,.64,.5,1.28,1,1.93,1.5,.65,.5,1.29,1,1.94,1.49,.66,.5,1.33,.99,1.99,1.48,.65,.48,1.29,.95,1.94,1.42,.68,.49,1.36,.97,2.04,1.45,.65,.46,1.31,.91,1.97,1.37,.69,.47,1.38,.95,2.07,1.41,.67,.45,1.34,.88,2.01,1.32,.7,.46,1.4,.92,2.1,1.37,.69,.44,1.38,.86,2.07,1.29,1.13,.7,2.26,1.39,3.4,2.07,.89,.53,1.77,1.06,2.66,1.57,.73,.42,1.47,.83,2.21,1.24,.69,.39,1.38,.78,2.07,1.16,.75,.41,1.51,.81,2.27,1.22,.69,.37,1.37,.73,2.07,1.09,.77,.4,1.54,.79,2.32,1.18,.69,.35,1.38,.69,2.08,1.03,.78,.38,1.57,.76,2.35,1.14,.7,.33,1.4,.66,2.1,.98,.8,.37,1.59,.73,2.39,1.09,.7,.31,1.41,.62,2.11,.92,.81,.35,1.61,.7,2.43,1.05,.74,.31,1.49,.61,2.23,.91,1.71,.7,3.44,1.36,5.17,2.02,.51,.19,1.01,.39,1.52,.58,.84,.31,1.69,.6,2.53,.9,.72,.25,1.44,.51,2.16,.76,.84,.29,1.69,.56,2.54,.84,.73,.24,1.46,.48,2.19,.71,.85,.27,1.71,.53,2.57,.79,.74,.22,1.48,.44,2.22,.66,.86,.25,1.72,.5,2.59,.74,.75,.21,1.49,.41,2.24,.61,.87,.23,1.74,.46,2.61,.68,.75,.19,1.51,.37,2.27,.55,.88,.21,1.75,.42,2.63,.63,.76,.17,1.52,.33,2.28,.5,.86,.19,1.72,.38,2.58,.55,.91-.19,1.83-.36,2.74-.55-.89,.19-1.77,.39-2.66,.57,14,2.84,28.49,4.34,43.34,4.34,119.67,0,216.68-97.01,216.68-216.68S423.01,0,303.35,0Z"/><g class="k"><path class="j" d="M188.78,45.94L130.73,.02l3.79-4.8,61.8,48.88-26.12,57.7-5.57-2.52,24.15-53.34Zm28.1,42.33l4.06,4.57,47.33-42.09L231.7-19.04l-5.42,2.84,34.35,65.56-43.76,38.91ZM50.99,166.9l37.36,45.09,4.71-3.9-40.41-48.77L-18.37,193.44l2.65,5.51,66.71-32.05ZM181.48,93.18l5.17,3.27,33.89-53.5L166.15-14.05l-4.42,4.22,51.09,53.55-31.34,49.46Zm17.53-3.7l4.66,3.96,41.01-48.27L198.75-18.84l-4.97,3.56,43.14,60.14-37.91,44.62Zm-50.2,18.18l5.87,1.72,17.83-60.77L104.51,8.82l-3.09,5.28,63.87,37.39-16.49,56.19Zm-77.68,15.49l23.49,53.64,5.6-2.45-25.4-58.02L-2.86,129.55l1.03,6.03,72.96-12.42Zm-11.6,21.17l30.72,49.85,5.2-3.21-33.23-53.92L-12.85,160.95l1.85,5.83,70.52-22.45Zm61.86-13.73l6.11,.04,.39-63.33L51.56,47.79l-1.52,5.92,71.7,18.34-.36,58.56Zm-11.05,14.1l6.06-.81-8.43-62.77-78.31-8.7-.68,6.08,73.56,8.18,7.79,58.03Zm-24.78-40.88l15.79,56.38,5.89-1.65-17.08-60.99-78.76,2.28,.18,6.11,73.98-2.14Zm213.99,20.74l63.31-1.82,16.84-76.97-5.97-1.31-15.82,72.3-58.53,1.68,.18,6.11Zm12.69,6.35l-.68,6.08,62.95,7.01,27.39-73.87-5.73-2.13-25.73,69.4-58.2-6.48Zm11.01,14.14l-1.52,5.92,61.36,15.7,37.4-69.35-5.38-2.9-35.14,65.14-56.73-14.51Zm8.93,15.53l-2.33,5.65,58.58,24.09,46.69-63.46-4.93-3.62-43.86,59.62-54.16-22.27Zm-97.43-71.03l3.39,5.09,52.72-35.09-26.5-74.2-5.76,2.06,24.9,69.7-48.75,32.45Zm150.68,165.23l-40.42-42.37-4.42,4.22,43.72,45.83,68.47-38.98-3.03-5.31-64.32,36.62Zm-46.57-77.58l-3.09,5.28,54.65,32,55.07-56.35-4.37-4.27-51.73,52.93-50.53-29.59Zm-86.6-83.89l2.65,5.51,57.09-27.41-15.92-77.16-5.99,1.24,14.95,72.48-52.79,25.34Zm90.9,101.28l-3.79,4.8,49.67,39.3,62.38-48.14-3.74-4.84-58.59,45.22-45.92-36.34Zm-74.08-95.13l1.85,5.83,60.35-19.2-5.03-78.63-6.1,.39,4.72,73.86-55.8,17.75Zm16.83,14.46l62.44-10.61,5.97-78.56-6.1-.46-5.6,73.8-57.73,9.81,1.02,6.03Zm-151.63,4.26l6.05,.89,9.2-62.66L76.67,26.45l-2.32,5.65,68.45,28.14-8.51,57.94Zm157.69,202.51l-5.97-1.31-13.55,61.87,70.61,34.96,2.71-5.48-66.33-32.84,12.53-57.2Zm-15.21,9.47l-5.73-2.13-22.03,59.38,65.06,44.45,3.45-5.05-61.11-41.75,20.37-54.9Zm28.95-20.96l-6.1-.46-4.81,63.15,74.79,24.79,1.92-5.8-70.25-23.29,4.44-58.39Zm-62.56,33.13l-4.92-3.62-37.54,51.01,50.28,60.66,4.71-3.9-47.23-56.98,34.71-47.16Zm17.23-4.91l-5.38-2.9-30.08,55.74,58.24,53.07,4.12-4.52-54.7-49.85,27.81-51.53Zm94.95-17.29l-19.69-55.15-5.76,2.06,21.3,59.65,78.41-7.77-.6-6.08-73.65,7.29Zm13.05-20.31l-27.17-51.87-5.42,2.84,29.39,56.1,76.56-18.6-1.44-5.94-71.92,17.47Zm10.09-21.92l-34.13-47.59-4.97,3.56,36.91,51.47,73.23-29.08-2.26-5.68-68.79,27.32Zm-60.75,18.01l-6.1,.39,4.03,63.21,77.51,14.14,1.1-6.02-72.81-13.29-3.73-58.44Zm10.04-14.84l-5.99,1.24,12.79,62.03,78.72,3.22,.25-6.11-73.95-3.03-11.82-57.35Zm-102.35,63.73l-4.37-4.27-44.28,45.29,41.35,67.07,5.2-3.21-38.84-63,40.94-41.87Zm-17.91-.03l-3.74-4.84-50.15,38.68,31.62,72.17,5.6-2.45-29.7-67.79,46.36-35.77Zm-102.15-64.06l1.93-5.8-60.11-19.94L5.03,321.53l5.17,3.27,39.59-62.53,55.58,18.44Zm-16.42-50.81l4.12-4.52-46.81-42.67L-19.32,226.37l3.39,5.09,61.6-41.02,43.27,39.45Zm26.41,65.68l1.1-6.02-62.3-11.38-32.48,71.79,5.57,2.52,30.51-67.43,57.6,10.52Zm-17.82-30.98l2.71-5.48-56.75-28.11L-7.5,291.05l4.66,3.96,47.91-56.41,52.47,25.99Zm-5.51-17.05l3.45-5.05-52.29-35.74-58.87,52.37,4.06,4.57,55.3-49.19,48.34,33.04Zm35.3,61.36l.25-6.11-63.28-2.6-22.17,75.61,5.87,1.72,20.82-71.02,58.51,2.4Zm45.24,28.37l-2.26-5.68-58.87,23.36,10.5,78.09,6.06-.81-9.86-73.35,54.43-21.6Zm17.21,4.97l-3.03-5.31-55.04,31.33,21.26,75.87,5.89-1.65-19.97-71.26,50.89-28.97Zm-35.01-18.22l-61.55,14.94-.47,78.79,6.11,.04,.44-74.01,56.9-13.82-1.44-5.94Zm-14.34-9.66l-63.03,6.23-11.43,77.95,6.05,.89,10.74-73.23,58.27-5.76-.6-6.08Z"/></g></g></g></g></svg>