<svg xmlns="http://www.w3.org/2000/svg" xmlns:xlink="http://www.w3.org/1999/xlink" viewBox="0 0 535.19 309"><defs><style>.cls-1{fill:none;}.cls-2{fill:#00003e;}.cls-3{fill:#fff;}.cls-4{fill:#29e7d6;}.cls-5{fill:url(#linear-gradient);}.cls-6{fill:url(#linear-gradient-2);}.cls-7{clip-path:url(#clip-path);}</style><linearGradient id="linear-gradient" x1="135.86" y1="206.03" x2="135.88" y2="206.03" gradientUnits="userSpaceOnUse"><stop offset="0.1" stop-color="#29e7d6"/><stop offset="1" stop-color="#000078"/></linearGradient><linearGradient id="linear-gradient-2" x1="93.81" y1="154.5" x2="198.98" y2="154.5" xlink:href="#linear-gradient"/><clipPath id="clip-path"><path class="cls-1" d="M135.88,206A52.6,52.6,0,0,1,93.81,154.5a31.55,31.55,0,1,1,42.07,29.75,31.55,31.55,0,0,0,42.06-29.75v0a52.54,52.54,0,1,0-41.42,51.39Z"/></clipPath></defs><g id="Layer_2" data-name="Layer 2"><g id="Layer_1-2" data-name="Layer 1"><rect class="cls-2" width="535.19" height="309"/><path class="cls-3" d="M280.35,129.91h0c-3.87-.28-6.77,2.1-6.77,6.07v11.85h-6.31V124.16h6.63a7.26,7.26,0,0,1-.53,3.39l.07-.13a6.94,6.94,0,0,1,1.31-1.78h0c.05,0,.1-.11.16-.16a6.31,6.31,0,0,1,1.41-1l0,0,.13-.06.12-.06h0a8.49,8.49,0,0,1,5.7-.18l-.73,5.88a1.86,1.86,0,0,0-.34-.06l-.12,0-.3,0h-.11Z"/><rect class="cls-3" x="319.07" y="124.16" width="6.31" height="23.66"/><rect class="cls-3" x="319.07" y="115.43" width="6.31" height="4.73"/><rect class="cls-3" x="287.03" y="115.43" width="6.31" height="4.73"/><rect class="cls-3" x="387.95" y="115.43" width="6.31" height="32.4"/><path class="cls-3" d="M313.24,129.63v-5.47h-7.76v-8.73h-6.31v22.32c0,3.35.53,5.44,1.75,7,1.6,2.14,4.36,3.4,8.15,3.4a16.5,16.5,0,0,0,4.05-.51l-1.25-5.28a13.45,13.45,0,0,1-2.41.21,4,4,0,0,1-3.21-1.17,4.35,4.35,0,0,1-.77-3v-8.85Z"/><path class="cls-3" d="M375.09,124.16v1.37a12.2,12.2,0,1,0,0,20.93v1.37h6.31V124.16Zm-6.27,18.21a6.38,6.38,0,1,1,6.37-6.37A6.37,6.37,0,0,1,368.82,142.37Z"/><path class="cls-3" d="M348.27,139.74a6.38,6.38,0,1,1,0-7.49l4.72-3.42a12.2,12.2,0,1,0,0,14.33Z"/><rect class="cls-3" x="287.03" y="124.16" width="6.31" height="23.66"/><path class="cls-3" d="M256.69,137.65a10.26,10.26,0,1,1,0-12.05l5.1-3.71a16.57,16.57,0,1,0,0,19.47Z"/><path class="cls-4" d="M277.28,181.52c0-6.52-4.59-12-11.06-12-7,0-11.4,5.7-11.4,12.22,0,7.34,5.26,12.17,12.27,12.17a12.73,12.73,0,0,0,9.61-4.2l-3.58-3.58a8.27,8.27,0,0,1-5.89,2.71,6.16,6.16,0,0,1-6.33-5.56h16.23A10,10,0,0,0,277.28,181.52Zm-16.09-2.8a5.09,5.09,0,0,1,5-4.1,4.66,4.66,0,0,1,4.63,4.1Z"/><path class="cls-4" d="M298.27,185.49a6.38,6.38,0,1,1,0-7.49l4.71-3.43a12.2,12.2,0,1,0,0,14.34Z"/><path class="cls-4" d="M327.1,173.24a10.36,10.36,0,0,0-8-3.69,10.1,10.1,0,0,0-6.22,2.11V161.17h-6.31v32.4h6.31V178a7.36,7.36,0,0,1,5.38-2.58,4.84,4.84,0,0,1,3.45,1.28c.85.85,1.37,2,1.37,4.31v12.58h6.33V181.28C329.46,177.36,328.61,175,327.1,173.24Z"/><polygon class="cls-4" points="231.83 161.17 231.83 167.48 240.59 167.48 240.59 193.57 246.97 193.57 246.97 167.48 258.54 167.48 255.73 161.17 231.83 161.17"/><polygon class="cls-4" points="363.14 169.91 357.39 183.42 355.45 179.06 352.22 171.81 351.37 169.91 345.05 169.91 349.14 179.06 346.06 186.32 334.86 161.17 328.55 161.17 343.01 193.57 349.32 193.57 352.37 186.32 355.57 193.57 359.41 193.57 369.46 169.91 363.14 169.91"/><path class="cls-4" d="M412.76,175.69h.1l.31,0,.12,0,.34.06.73-5.87a8.59,8.59,0,0,0-5.71.17h0l-.11.06-.13.06-.05,0a6.8,6.8,0,0,0-1.41,1c-.05.05-.11.1-.16.16h0a6.38,6.38,0,0,0-1.3,1.78.83.83,0,0,0-.07.13,7.52,7.52,0,0,0,.53-3.39h-6.63v23.66h6.31V181.73c0-4,2.89-6.35,6.77-6.08h0Z"/><path class="cls-4" d="M382.56,169.55a12.2,12.2,0,1,0,12.2,12.19A12.19,12.19,0,0,0,382.56,169.55Zm0,18.56a6.37,6.37,0,1,1,6.37-6.37A6.37,6.37,0,0,1,382.56,188.11Z"/><path class="cls-4" d="M446.71,186.31a9.93,9.93,0,0,0,6.43,2.31c1.69,0,3-.82,3-2,0-3.52-11.35-2.27-11.35-9.8,0-4.49,4.35-7.29,9-7.29a14.55,14.55,0,0,1,7.92,2.36l-2.94,4.54a7.89,7.89,0,0,0-4.49-1.59c-1.74,0-3.19.68-3.19,1.88,0,3,11.35,1.84,11.35,9.95,0,4.49-4.4,7.25-9.32,7.25a16.18,16.18,0,0,1-9.42-3.14Z"/><polygon class="cls-4" points="430.69 180.93 441.7 169.91 433.47 169.91 426.92 176.47 424.49 178.89 424.49 161.17 418.18 161.17 418.18 193.57 424.49 193.57 424.49 183.15 434.02 193.57 442.26 193.57 430.69 180.93"/><path class="cls-5" d="M135.88,206h0Z"/><path class="cls-6" d="M146.39,101.92a52.77,52.77,0,0,0-10.51,1,52.59,52.59,0,0,1,42.06,51.53,31.55,31.55,0,0,1-31.55,31.55h-1l-.46,0-.35,0-.37,0-.41,0-.28,0-.49,0h-.09a31.55,31.55,0,0,1-7-61.11A31.56,31.56,0,0,0,93.81,154.5c0,.43,0,.85,0,1.28,0,.14,0,.28,0,.42l0,.85,0,.49c0,.26,0,.52,0,.78s0,.34,0,.51,0,.51.07.76,0,.34,0,.51l.09.77c0,.16,0,.32.06.48s.07.55.11.82l.06.42c.06.38.12.76.19,1.14a.25.25,0,0,1,0,.08c.08.41.15.81.24,1.22,0,.13,0,.26.08.39l.18.81c0,.16.07.32.11.47s.11.49.18.73l.12.49c.06.24.13.47.19.71s.09.32.14.48l.21.71c0,.16.1.31.14.47s.17.5.25.75.09.27.13.41c.11.33.23.65.35,1l.06.16c.13.38.28.75.42,1.13,0,.12.11.25.16.38l.3.74c.06.15.13.29.19.44l.29.66.21.47.3.63c.07.16.15.31.22.47l.31.63c.08.15.16.3.23.45l.35.65.22.41c.14.27.29.53.44.79l.14.25c.2.34.39.68.6,1,.07.13.15.26.23.38s.26.43.4.64l.28.43c.12.19.24.38.37.57l.3.44.38.54.31.44.39.54.32.43.41.54.32.4c.16.21.32.41.49.61l.25.32.74.87.33.38.46.51.37.41.44.46.39.41.43.45.41.4c.14.15.29.29.44.43l.41.4.46.43.41.38.51.45.47.41.77.65.44.36.49.39.46.36.47.36.49.36.47.35.5.35.47.33.51.34.48.32c.17.11.34.23.51.33l.51.32c.27.17.54.34.82.5l.65.38c.17.11.35.2.53.3l.51.29.55.29.5.27.56.28.51.25.57.28.51.24.58.26.51.23.59.25.54.22,1.26.49.36.14.62.22.52.18.62.21.53.17.63.19.53.16c.21.07.42.12.63.18l.55.15.63.17.55.13.64.15.55.12.63.14.66-.14-.64.14a52.59,52.59,0,1,0,10.51-104.11Z"/><g class="cls-7"><path class="cls-4" d="M118.59,113.07,104.5,101.92l.93-1.16,15,11.86-6.34,14-1.35-.61Zm6.82,10.27,1,1.11,11.48-10.22L129,97.3l-1.32.69,8.34,15.9ZM85.15,142.42l9.07,10.94,1.14-.94-9.8-11.84-17.24,8.28L69,150.2Zm31.67-17.89,1.25.8,8.23-13L113.1,98.51l-1.08,1,12.4,13Zm4.25-.9,1.13,1,10-11.72L121,97.35l-1.21.86,10.47,14.59Zm-12.18,4.42,1.42.41,4.33-14.74-16.5-9.66-.75,1.28,15.5,9.07ZM90,131.81l5.7,13,1.36-.59-6.17-14.08-18.85,3.21.25,1.46Zm-2.82,5.13L94.68,149l1.26-.78-8.06-13.08L69.66,141l.45,1.41Zm15-3.33h1.48l.09-15.37-18.52-4.74L84.92,115l17.4,4.45ZM99.55,137l1.48-.19L99,121.6l-19-2.11L79.81,121l17.85,2Zm-6-9.92,3.83,13.68,1.43-.4-4.14-14.8-19.11.56,0,1.48Zm51.93,5,15.37-.44L164.92,113l-1.45-.31-3.84,17.54-14.2.41Zm3.08,1.55-.16,1.47,15.27,1.7,6.65-17.93-1.39-.51-6.24,16.84Zm2.67,3.43-.36,1.43,14.89,3.81,9.07-16.83-1.3-.7L165,140.64Zm2.17,3.76-.56,1.38L167,148.1l11.33-15.4-1.19-.88-10.65,14.47Zm-23.64-17.23.82,1.23,12.79-8.51-6.43-18-1.39.5,6,16.91Zm36.56,40.1-9.8-10.29-1.08,1L166,165.61l16.62-9.46-.74-1.29ZM155,144.92l-.75,1.28L167.53,154l13.36-13.68-1.06-1L167.28,152.1Zm-21-20.36.64,1.34,13.86-6.66-3.87-18.72-1.45.3,3.63,17.59Zm22.06,24.58-.92,1.16,12.05,9.54,15.14-11.68-.91-1.18L167.2,158Zm-18-23.09.45,1.42,14.65-4.66L152,103.72l-1.48.1,1.14,17.92Zm4.09,3.51L157.32,127l1.45-19.07-1.48-.11-1.36,17.91-14,2.38Zm-36.8,1,1.47.21,2.23-15.21-17.69-7.26-.56,1.37,16.61,6.83Zm38.27,49.14-1.45-.32-3.29,15L156,202.92l.66-1.33-16.09-8ZM140,182l-1.39-.52-5.35,14.41L149,206.72l.83-1.23L135,195.36Zm7-5.09-1.48-.11-1.16,15.32,18.15,6,.46-1.41-17.05-5.65Zm-15.18,8-1.19-.88-9.11,12.38,12.2,14.72,1.14-1-11.46-13.82ZM136,183.8l-1.3-.7-7.3,13.52L141.5,209.5l1-1.1-13.28-12.09Zm23-4.2-4.77-13.38-1.4.5L158,181.19l19-1.88-.14-1.48Zm3.17-4.92-6.59-12.59-1.32.69,7.13,13.61L180,171.88l-.35-1.45Zm2.45-5.33-8.28-11.54-1.21.86,9,12.49,17.77-7-.55-1.38Zm-14.74,4.38-1.48.09,1,15.34,18.81,3.43.27-1.46-17.67-3.22Zm2.43-3.61-1.45.3,3.1,15.06,19.11.78.06-1.48L155.19,184Zm-24.83,15.47-1.07-1-10.74,11,10,16.28L127,211l-9.43-15.29Zm-4.35,0-.91-1.17-12.17,9.39,7.67,17.51,1.36-.6-7.2-16.45ZM98.35,170l.47-1.41-14.59-4.84L74,179.94l1.25.8,9.61-15.18Zm-4-12.33,1-1.1L84,146.26,68.09,156.85l.82,1.24,15-10Zm6.41,15.94.27-1.46-15.12-2.77L78,186.85l1.35.61,7.4-16.37Zm-4.32-7.52.66-1.33L83.34,158,71,172.55l1.13,1,11.63-13.69ZM95.11,162l.84-1.22-12.69-8.68L69,164.8l1,1.11L83.38,154Zm8.57,14.89.06-1.48-15.36-.63L83,193.12l1.43.41,5-17.23Zm11,6.89-.55-1.38-14.29,5.67L102.37,207l1.47-.2L101.45,189Zm4.17,1.2-.73-1.29-13.36,7.6,5.16,18.42,1.43-.4L106.48,192Zm-8.49-4.42L95.4,184.18l-.11,19.12h1.48l.11-18L110.69,182Zm-3.48-2.34-15.3,1.51-2.77,18.92,1.47.21,2.6-17.77,14.14-1.4Z"/></g></g></g></svg>